# xmcd CD database file
#
# Track frame offsets:
#	182
#	19007
#	34907
#	42407
#	51857
#	61307
#	67307
#	81632
#	93032
#	106457
#	115682
#	125057
#	141557
#	148832
#	154307
#	164882
#	169682
#	183182
#	195032
#	203582
#	211682
#	224207
#	236732
#	247982
#	259532
#	268457
#	273107
#
# Disc length: 3867 seconds
#
# Revision: 0
# Processed by: cddbd v1.5.1PL0 Copyright (c) Steve Scherf et al.
# Submitted via: CDex 1.51
#
DISCID=a10f191b
DTITLE=Sonoton Authentic Series - SAS 032 - Authentic Thailand Vol. 2
DYEAR=1989
DGENRE=Contentum
TTITLE0=Rabum nokyoung sword fighting 1
TTITLE1=Rabum nokyoung sword fighting 2
TTITLE2=Rabum nokyoung sword fighting 3
TTITLE3=Tong Yon 1
TTITLE4=Tong Yon 2
TTITLE5=Tong Yon 3
TTITLE6=Tong Yon 4
TTITLE7=Tong Yon 5
TTITLE8=Tong Yon 6
TTITLE9=Tong Yon 7
TTITLE10=Tong Yon 8
TTITLE11=Thai phukoa 1
TTITLE12=Thai phukoa 2
TTITLE13=Thai phukoa 3
TTITLE14=Mali Son
TTITLE15=Doung Churn
TTITLE16=Ranad-ek tune
TTITLE17=Prayasoke
TTITLE18=Hun raboug
TTITLE19=Ton vorachet
TTITLE20=Thoranee Gunsaeng 1
TTITLE21=Thoranee Gunsaeng 2
TTITLE22=Thoranee Gunsaeng 3
TTITLE23=Thoranee Gunsaeng 4
TTITLE24=Kaeg soug
TTITLE25=Hog bot
TTITLE26=Kwaham Hlang
EXTD=YEAR: 1989
EXTT0=
EXTT1=
EXTT2=
EXTT3=
EXTT4=
EXTT5=
EXTT6=
EXTT7=
EXTT8=
EXTT9=
EXTT10=
EXTT11=
EXTT12=
EXTT13=
EXTT14=
EXTT15=
EXTT16=
EXTT17=
EXTT18=
EXTT19=
EXTT20=
EXTT21=
EXTT22=
EXTT23=
EXTT24=
EXTT25=
EXTT26=
PLAYORDER=
